# xmcd
#
# Track frame offsets:
#	151
#	16249
#	27999
#	45000
#	59598
#	70895
#	87893
#	99045
#	115295
#	126521
#
# Disc length: 1896 seconds
#
# Revision: 1
# Processed by: cddbd v1.5.2PL0 Copyright (c) Steve Scherf et al.
# Submitted via: audiograbber 1.83.01
#
DISCID=7907660a
DTITLE=Clifton Lewis - It´s All About Love Clifton Lewis
DYEAR=2003
DGENRE=
TTITLE0=Wanted Man
TTITLE1=I´m The One Who´s Lost Everything
TTITLE2=Why Don´t We Drop Anchor
TTITLE3=Sweetest Of All
TTITLE4=I´m Going To Heaven
TTITLE5=You Taught Me How To Love Again
TTITLE6=New Love
TTITLE7=Love Is Not Always A Rose
TTITLE8=I´ll Sing Sing Sing
TTITLE9=Love Is A Terrible Thing To Waste
EXTD=
EXTT0=
EXTT1=
EXTT2=
EXTT3=
EXTT4=
EXTT5=
EXTT6=
EXTT7=
EXTT8=
EXTT9=
PLAYORDER=
